<svg height="512" viewBox="0 0 56 46" width="512" xmlns="http://www.w3.org/2000/svg"><g id="Page-1" fill="none" fill-rule="evenodd"><g id="020---Camera" fill="rgb(0,0,0)" fill-rule="nonzero"><path id="Shape" d="m1 46h22c.5522847 0 1-.4477153 1-1v-28h-2c-.5522847 0-1-.4477153-1-1s.4477153-1 1-1h2v-3h-20c-.55228475 0-1-.4477153-1-1s.44771525-1 1-1h1v-2c0-1.1045695.8954305-2 2-2h8c1.1045695 0 2 .8954305 2 2v2h7.764l8.683-4.342c.3397203-.16817653.5542129-.51493301.553-.894v-.764h-1c-.5522847 0-1-.44771525-1-1s.4477153-1 1-1h1v-1c0-.55228475-.4477153-1-1-1h-32c-.55228475 0-1 .44771525-1 1v21h12c1.1045695 0 2 .8954305 2 2v18c0 1.1045695-.8954305 2-2 2h-12v1c0 .5522847.44771525 1 1 1z"/><path id="Rectangle-path" d="m0 24h12v18h-12z"/><path id="Shape" d="m28 40.382v-24.763l-2 1v22.763z"/><path id="Rectangle-path" d="m7 8h8v2h-8z"/><path id="Shape" d="m56 38v-20c0-.5522847-.4477153-1-1-1h-1v22h1c.5522847 0 1-.4477153 1-1z"/><path id="Shape" d="m30 41h9v-21c0-.5522847.4477153-1 1-1s1 .4477153 1 1v21h10c.5522847 0 1-.4477153 1-1v-24c0-.5522847-.4477153-1-1-1h-21zm14-24h5c.5522847 0 1 .4477153 1 1s-.4477153 1-1 1h-5c-.5522847 0-1-.4477153-1-1s.4477153-1 1-1zm0 4h5c.5522847 0 1 .4477153 1 1s-.4477153 1-1 1h-5c-.5522847 0-1-.4477153-1-1s.4477153-1 1-1zm0 4h5c.5522847 0 1 .4477153 1 1s-.4477153 1-1 1h-5c-.5522847 0-1-.4477153-1-1s.4477153-1 1-1zm0 4h5c.5522847 0 1 .4477153 1 1s-.4477153 1-1 1h-5c-.5522847 0-1-.4477153-1-1s.4477153-1 1-1zm0 4h5c.5522847 0 1 .4477153 1 1s-.4477153 1-1 1h-5c-.5522847 0-1-.4477153-1-1s.4477153-1 1-1zm0 4h5c.5522847 0 1 .4477153 1 1s-.4477153 1-1 1h-5c-.5522847 0-1-.4477153-1-1s.4477153-1 1-1z"/></g></g></svg>